<svg version="1.1" viewBox="0.0 0.0 400.0 80.0" fill="none" stroke="none" stroke-linecap="square" stroke-miterlimit="10" xmlns:xlink="http://www.w3.org/1999/xlink" xmlns="http://www.w3.org/2000/svg"><clipPath id="p.0"><path d="m0 0l400.0 0l0 80.0l-400.0 0l0 -80.0z" clip-rule="nonzero"/></clipPath><g clip-path="url(#p.0)"><path fill="#000000" fill-opacity="0.0" d="m0 0l400.0 0l0 80.0l-400.0 0z" fill-rule="evenodd"/><path fill="#000000" d="m14.48294 40.0l0 0c0 -16.794674 13.614774 -30.409449 30.409447 -30.409449l0 0c8.06509 0 15.79985 3.203843 21.502731 8.906721c5.702873 5.702877 8.906715 13.437641 8.906715 21.502728l0 0c0 16.794674 -13.614769 30.409447 -30.409447 30.409447l0 0c-16.794674 0 -30.409447 -13.614773 -30.409447 -30.409447z" fill-rule="evenodd"/><path stroke="#ffffff" stroke-width="1.0" stroke-linejoin="round" stroke-linecap="butt" d="m14.48294 40.0l0 0c0 -16.794674 13.614774 -30.409449 30.409447 -30.409449l0 0c8.06509 0 15.79985 3.203843 21.502731 8.906721c5.702873 5.702877 8.906715 13.437641 8.906715 21.502728l0 0c0 16.794674 -13.614769 30.409447 -30.409447 30.409447l0 0c-16.794674 0 -30.409447 -13.614773 -30.409447 -30.409447z" fill-rule="evenodd"/><path fill="#000000" fill-opacity="0.0" d="m14.48294 12.929133l62.58268 0l0 54.141735l-62.58268 0z" fill-rule="evenodd"/><path fill="#ffffff" d="m32.873566 34.010384q-0.796875 0.375 -1.7500019 0.640625q-0.9375 0.265625 -1.8125 0.265625q-1.125 0 -2.078125 -0.3125q-0.9375 -0.3125 -1.609375 -0.9375q-0.65625 -0.625 -1.03125 -1.5625q-0.359375 -0.953125 -0.359375 -2.234375q0 -2.3125 1.359375 -3.65625q1.359375 -1.34375 3.71875 -1.34375q0.828125 0 1.6875 0.203125q0.859375 0.1875 1.8593769 0.65625l0 1.53125l-0.109375 0q-0.203125 -0.15625 -0.59375 -0.40625q-0.3750019 -0.25 -0.7500019 -0.421875q-0.453125 -0.203125 -1.03125 -0.328125q-0.5625 -0.140625 -1.28125 -0.140625q-1.625 0 -2.578125 1.046875q-0.9375 1.046875 -0.9375 2.828125q0 1.875 0.984375 2.921875q0.984375 1.046875 2.6875 1.046875q0.625 0 1.25 -0.125q0.625 -0.125 1.09375 -0.3125l0 -2.375l-2.59375 0l0 -1.140625l3.875002 0l0 4.15625zm9.475128 -7.859375q0.59375 0.65625 0.90625 1.59375q0.3125 0.9375 0.3125 2.140625q0 1.203125 -0.328125 2.15625q-0.3125 0.9375 -0.890625 1.5625q-0.609375 0.65625 -1.421875 1.0q-0.8125 0.328125 -1.859375 0.328125q-1.03125 0 -1.875 -0.328125q-0.828125 -0.34375 -1.40625 -1.0q-0.59375 -0.640625 -0.90625 -1.578125q-0.3125 -0.9375 -0.3125 -2.140625q0 -1.1875 0.3125 -2.125q0.3125 -0.9375 0.90625 -1.609375q0.578125 -0.640625 1.421875 -0.96875q0.859375 -0.34375 1.859375 -0.34375q1.03125 0 1.859375 0.34375q0.84375 0.34375 1.421875 0.96875zm-0.125 3.734375q0 -1.890625 -0.84375 -2.90625q-0.84375 -1.03125 -2.3125 -1.03125q-1.46875 0 -2.3125 1.03125q-0.84375 1.015625 -0.84375 2.90625q0 1.90625 0.859375 2.921875q0.859375 1.015625 2.296875 1.015625q1.453125 0 2.296875 -1.015625q0.859375 -1.015625 0.859375 -2.921875zm10.615692 -3.734375q0.59375 0.65625 0.90625 1.59375q0.3125 0.9375 0.3125 2.140625q0 1.203125 -0.328125 2.15625q-0.3125 0.9375 -0.890625 1.5625q-0.609375 0.65625 -1.421875 1.0q-0.8125 0.328125 -1.859375 0.328125q-1.03125 0 -1.875 -0.328125q-0.828125 -0.34375 -1.40625 -1.0q-0.59375 -0.640625 -0.90625 -1.578125q-0.3125 -0.9375 -0.3125 -2.140625q0 -1.1875 0.3125 -2.125q0.3125 -0.9375 0.90625 -1.609375q0.578125 -0.640625 1.421875 -0.96875q0.859375 -0.34375 1.859375 -0.34375q1.03125 0 1.859375 0.34375q0.84375 0.34375 1.421875 0.96875zm-0.125 3.734375q0 -1.890625 -0.84375 -2.90625q-0.84375 -1.03125 -2.3125 -1.03125q-1.46875 0 -2.3125 1.03125q-0.84375 1.015625 -0.84375 2.90625q0 1.90625 0.859375 2.921875q0.859375 1.015625 2.296875 1.015625q1.453125 0 2.296875 -1.015625q0.859375 -1.015625 0.859375 -2.921875zm11.568817 0.015625q0 1.3125 -0.578125 2.390625q-0.5625 1.078125 -1.53125 1.65625q-0.65625 0.421875 -1.484375 0.609375q-0.8125 0.171875 -2.140625 0.171875l-2.453125 0l0 -9.6875l2.421875 0q1.421875 0 2.25 0.203125q0.84375 0.203125 1.421875 0.5625q0.984375 0.625 1.53125 1.65625q0.5625 1.015625 0.5625 2.4375zm-1.34375 -0.03125q0 -1.140625 -0.40625 -1.921875q-0.390625 -0.78125 -1.171875 -1.21875q-0.578125 -0.328125 -1.21875 -0.453125q-0.640625 -0.125 -1.546875 -0.125l-1.203125 0l0 7.46875l1.203125 0q0.9375 0 1.625 -0.125q0.703125 -0.140625 1.28125 -0.515625q0.71875 -0.46875 1.078125 -1.21875q0.359375 -0.75 0.359375 -1.890625z" fill-rule="nonzero"/><path fill="#ffffff" d="m28.342314 50.613506q0 1.265625 -0.78125 1.96875q-0.78125 0.6875 -2.09375 0.6875q-0.3125 0 -0.828125 -0.0625q-0.515625 -0.046875 -0.875 -0.125l0 -1.203125l0.078125 0q0.265625 0.078125 0.65625 0.1875q0.390625 0.09375 0.796875 0.09375q0.609375 0 0.953125 -0.140625q0.359375 -0.140625 0.53125 -0.390625q0.171875 -0.25 0.21875 -0.625q0.046875 -0.390625 0.046875 -0.875l0 -5.65625l-2.046875 0l0 -1.03125l3.34375 0l0 7.171875zm5.918215 2.515625l-3.828127 0l0 -0.984375l1.265625 0l0 -7.71875l-1.265625 0l0 -0.984375l3.828127 0l0 0.984375l-1.265625 0l0 7.71875l1.265625 0l0 0.984375zm9.578537 0l-1.59375 0l-4.59375 -8.671875l0 8.671875l-1.203125 0l0 -9.6875l2.0 0l4.1875 7.90625l0 -7.90625l1.203125 0l0 9.6875z" fill-rule="nonzero"/><path fill="#000000" fill-opacity="0.0" d="m82.51706 4.4566927l313.35434 0l0 71.08661l-313.35434 0z" fill-rule="evenodd"/><path fill="#000000" d="m109.095184 42.44794l0 -3.59375l12.9375 -0.015625l0 11.328125q-2.984375 2.375 -6.15625 3.578125q-3.15625 1.1875 -6.484375 1.1875q-4.5 0 -8.1875 -1.921875q-3.671875 -1.921875 -5.546875 -5.5625q-1.875 -3.65625 -1.875 -8.15625q0 -4.453125 1.859375 -8.312498q1.875 -3.875 5.375 -5.75q3.5 -1.875 8.0625 -1.875q3.3125 0 5.984375 1.078125q2.671875 1.078125 4.1875 3.0q1.53125 1.90625 2.328125 4.984373l-3.65625 1.0q-0.6875 -2.328123 -1.703125 -3.656248q-1.015625 -1.34375 -2.921875 -2.140625q-1.890625 -0.796875 -4.203125 -0.796875q-2.765625 0 -4.796875 0.84375q-2.015625 0.84375 -3.25 2.21875q-1.234375 1.375 -1.921875 3.015623q-1.171875 2.828125 -1.171875 6.140625q0 4.09375 1.40625 6.84375q1.40625 2.734375 4.09375 4.078125q2.6875 1.328125 5.703125 1.328125q2.625 0 5.125 -1.0q2.5 -1.015625 3.796875 -2.171875l0 -5.671875l-8.984375 0zm17.663773 -2.90625q0 -7.593748 4.078125 -11.890623q4.09375 -4.3125 10.546875 -4.3125q4.21875 0 7.609375 2.03125q3.40625 2.015625 5.1875 5.625q1.78125 3.609373 1.78125 8.203123q0 4.640625 -1.875 8.3125q-1.875 3.65625 -5.3125 5.546875q-3.4375 1.875 -7.421875 1.875q-4.3125 0 -7.703125 -2.078125q-3.390625 -2.078125 -5.140625 -5.671875q-1.75 -3.609375 -1.75 -7.640625zm4.171875 0.0625q0 5.515625 2.953125 8.703125q2.96875 3.171875 7.453125 3.171875q4.5625 0 7.5 -3.203125q2.953125 -3.21875 2.953125 -9.109375q0 -3.71875 -1.265625 -6.5q-1.25 -2.781248 -3.6875 -4.312498q-2.421875 -1.53125 -5.4375 -1.53125q-4.296875 0 -7.390625 2.953125q-3.078125 2.937498 -3.078125 9.828123zm29.007523 -0.0625q0 -7.593748 4.078125 -11.890623q4.09375 -4.3125 10.546875 -4.3125q4.21875 0 7.609375 2.03125q3.40625 2.015625 5.1875 5.625q1.78125 3.609373 1.78125 8.203123q0 4.640625 -1.875 8.3125q-1.875 3.65625 -5.3125 5.546875q-3.4375 1.875 -7.421875 1.875q-4.3125 0 -7.703125 -2.078125q-3.390625 -2.078125 -5.140625 -5.671875q-1.75 -3.609375 -1.75 -7.640625zm4.171875 0.0625q0 5.515625 2.953125 8.703125q2.96875 3.171875 7.453125 3.171875q4.5625 0 7.5 -3.203125q2.953125 -3.21875 2.953125 -9.109375q0 -3.71875 -1.265625 -6.5q-1.25 -2.781248 -3.6875 -4.312498q-2.421875 -1.53125 -5.4375 -1.53125q-4.296875 0 -7.390625 2.953125q-3.078125 2.937498 -3.078125 9.828123zm30.241898 14.8125l0 -30.531248l10.515625 0q3.5625 0 5.4375 0.4375q2.625 0.59375 4.46875 2.1875q2.421875 2.03125 3.609375 5.21875q1.203125 3.171873 1.203125 7.249998q0 3.484375 -0.8125 6.171875q-0.8125 2.6875 -2.078125 4.453125q-1.265625 1.75 -2.78125 2.765625q-1.515625 1.0 -3.65625 1.53125q-2.125 0.515625 -4.890625 0.515625l-11.015625 0zm4.03125 -3.609375l6.515625 0q3.03125 0 4.75 -0.5625q1.71875 -0.5625 2.734375 -1.578125q1.4375 -1.4375 2.234375 -3.859375q0.8125 -2.421875 0.8125 -5.890625q0 -4.78125 -1.578125 -7.359373q-1.578125 -2.578125 -3.828125 -3.453125q-1.625 -0.625 -5.21875 -0.625l-6.421875 0l0 23.328123zm24.711227 -5.0625l3.640625 -0.5q0.140625 3.5 1.3125 4.796875q1.171875 1.296875 3.234375 1.296875q1.515625 0 2.609375 -0.703125q1.109375 -0.703125 1.515625 -1.890625q0.421875 -1.203125 0.421875 -3.828125l0 -21.031248l4.046875 0l0 20.796873q0 3.84375 -0.9375 5.953125q-0.921875 2.09375 -2.9375 3.203125q-2.0 1.09375 -4.703125 1.09375q-4.015625 0 -6.15625 -2.3125q-2.140625 -2.3125 -2.046875 -6.875zm24.078125 8.671875l0 -30.531248l4.03125 0l0 30.531248l-4.03125 0zm11.116913 0l0 -30.531248l4.140625 0l16.046875 23.968748l0 -23.968748l3.875 0l0 30.531248l-4.15625 0l-16.03125 -23.999998l0 23.999998l-3.875 0zm31.429962 0l0 -4.265625l4.265625 0l0 4.265625l-4.265625 0zm10.788788 0l0 -22.125l3.375 0l0 3.15625q2.4375 -3.656248 7.03125 -3.656248q2.0 0 3.671875 0.7187481q1.6875 0.71875 2.515625 1.890625q0.84375 1.171875 1.171875 2.765625q0.203125 1.046875 0.203125 3.65625l0 13.59375l-3.75 0l0 -13.453125q0 -2.296875 -0.4375 -3.421875q-0.4375 -1.140625 -1.546875 -1.8125q-1.109375 -0.6875 -2.609375 -0.6875q-2.390625 0 -4.140625 1.53125q-1.734375 1.515625 -1.734375 5.765625l0 12.078125l-3.75 0zm22.332733 -11.0625q0 -6.140625 3.40625 -9.09375q2.859375 -2.468748 6.953125 -2.468748q4.5625 0 7.453125 2.999998q2.90625 2.984375 2.90625 8.25q0 4.265625 -1.28125 6.71875q-1.28125 2.453125 -3.734375 3.8125q-2.4375 1.34375 -5.34375 1.34375q-4.640625 0 -7.5 -2.96875q-2.859375 -2.984375 -2.859375 -8.59375zm3.84375 0q0 4.25 1.859375 6.375q1.859375 2.109375 4.65625 2.109375q2.796875 0 4.640625 -2.125q1.859375 -2.125 1.859375 -6.484375q0 -4.09375 -1.859375 -6.203125q-1.859375 -2.125 -4.640625 -2.125q-2.796875 0 -4.65625 2.109375q-1.859375 2.09375 -1.859375 6.34375zm29.457733 7.703125l0.53125 3.3125q-1.578125 0.34375 -2.828125 0.34375q-2.03125 0 -3.15625 -0.640625q-1.125 -0.65625 -1.59375 -1.703125q-0.453125 -1.0625 -0.453125 -4.4375l0 -12.71875l-2.75 0l0 -2.921875l2.75 0l0 -5.468748l3.734375 -2.25l0 7.718748l3.765625 0l0 2.921875l-3.765625 0l0 12.9375q0 1.59375 0.1875 2.0625q0.203125 0.453125 0.640625 0.734375q0.453125 0.265625 1.296875 0.265625q0.625 0 1.640625 -0.15625zm18.804413 -3.765625l3.875 0.484375q-0.921875 3.390625 -3.40625 5.265625q-2.46875 1.875 -6.328125 1.875q-4.84375 0 -7.6875 -2.984375q-2.84375 -3.0 -2.84375 -8.390625q0 -5.578125 2.875 -8.65625q2.875 -3.093748 7.453125 -3.093748q4.4375 0 7.25 3.031248q2.8125 3.015625 2.8125 8.5q0 0.328125 -0.015625 0.984375l-16.5 0q0.203125 3.65625 2.0625 5.59375q1.859375 1.9375 4.625 1.9375q2.0625 0 3.515625 -1.078125q1.453125 -1.09375 2.3125 -3.46875zm-12.3125 -6.0625l12.359375 0q-0.25 -2.78125 -1.421875 -4.1875q-1.796875 -2.15625 -4.640625 -2.15625q-2.578125 0 -4.34375 1.734375q-1.765625 1.71875 -1.953125 4.609375z" fill-rule="nonzero"/><path fill="#000000" fill-opacity="0.0" d="m51.14698 53.61155l11.874016 0" fill-rule="evenodd"/><path stroke="#ffffff" stroke-width="1.0" stroke-linejoin="round" stroke-linecap="butt" d="m51.14698 53.61155l11.874016 0" fill-rule="evenodd"/></g></svg>